<svg width="20" height="20" viewBox="0 0 20 20" fill="none" xmlns="http://www.w3.org/2000/svg">
<path d="M5.5 16C2.46243 16 0 13.5376 0 10.5C0 7.46243 2.46243 5 5.5 5H16C18.2091 5 20 6.79086 20 9C20 11.2091 18.2091 13 16 13H7.5C6.11929 13 5 11.8807 5 10.5C5 9.11929 6.11929 8 7.5 8H15V9.5H7.5C6.94772 9.5 6.5 9.94772 6.5 10.5C6.5 11.0523 6.94772 11.5 7.5 11.5H16C16.663 11.5 17.2989 11.2366 17.7678 10.7678C18.2366 10.2989 18.5 9.66304 18.5 9C18.5 8.33696 18.2366 7.70107 17.7678 7.23223C17.2989 6.76339 16.663 6.5 16 6.5H5.5C3.29086 6.5 1.5 8.29086 1.5 10.5C1.5 12.7091 3.29086 14.5 5.5 14.5H15V16H5.5Z" fill="black"/>
</svg>
