<svg width="20" height="20" viewBox="0 0 20 20" fill="none" xmlns="http://www.w3.org/2000/svg">
<path fill-rule="evenodd" clip-rule="evenodd" d="M15 5C15 2.23858 12.7614 0 10 0C7.23858 0 5 2.23858 5 5C5 7.76142 7.23858 10 10 10C12.7614 10 15 7.76142 15 5ZM7.5 5C7.5 3.61929 8.61929 2.5 10 2.5C11.3807 2.5 12.5 3.61929 12.5 5C12.5 6.38071 11.3807 7.5 10 7.5C8.61929 7.5 7.5 6.38071 7.5 5ZM10 11.25C13.3375 11.25 20 12.9125 20 16.25V20H0V16.25C0 12.9125 6.6625 11.25 10 11.25ZM2.375 16.25C2.375 15.45 6.2875 13.625 10 13.625C13.7125 13.625 17.625 15.45 17.625 16.25V17.625H2.375V16.25Z" fill="black"/>
</svg>
