<svg width="24" height="24" viewBox="0 0 24 24" fill="none" xmlns="http://www.w3.org/2000/svg">
<path fill-rule="evenodd" clip-rule="evenodd" d="M0 12C1.88727 7.31733 6.54545 4 12 4C17.4545 4 22.1127 7.31733 24 12C22.1127 16.6827 17.4545 20 12 20C6.54545 20 1.88727 16.6827 0 12ZM12 17.3333C8.98754 17.3333 6.54545 14.9455 6.54545 12C6.54545 9.05448 8.98754 6.66667 12 6.66667C15.0125 6.66667 17.4545 9.05448 17.4545 12C17.4545 14.9455 15.0125 17.3333 12 17.3333ZM12 8.8C10.1925 8.8 8.72727 10.2327 8.72727 12C8.72727 13.7673 10.1925 15.2 12 15.2C13.8075 15.2 15.2727 13.7673 15.2727 12C15.2727 10.2327 13.8075 8.8 12 8.8Z" fill="black"/>
</svg>
