<svg width="24" height="24" viewBox="0 0 24 24" fill="none" xmlns="http://www.w3.org/2000/svg">
<path fill-rule="evenodd" clip-rule="evenodd" d="M17.8286 8.91429C17.8286 3.99106 13.8375 0 8.91429 0C3.99106 0 0 3.99106 0 8.91429C0 13.8375 3.99106 17.8286 8.91429 17.8286C11.1223 17.8286 13.152 17.0194 14.7154 15.6891L15.0857 16.0594V17.1429L21.9429 24L24 21.9429L17.1429 15.0857H16.0594L15.6891 14.7154C17.0194 13.152 17.8286 11.1223 17.8286 8.91429ZM2.74286 8.91429C2.74286 5.48571 5.48571 2.74286 8.91429 2.74286C12.3429 2.74286 15.0857 5.48571 15.0857 8.91429C15.0857 12.3429 12.3429 15.0857 8.91429 15.0857C5.48571 15.0857 2.74286 12.3429 2.74286 8.91429Z" fill="black"/>
</svg>
