<svg width="16" height="16" viewBox="0 0 16 16" fill="none" xmlns="http://www.w3.org/2000/svg">
<path fill-rule="evenodd" clip-rule="evenodd" d="M12 4C12 1.79086 10.2091 0 8 0C5.79086 0 4 1.79086 4 4C4 6.20914 5.79086 8 8 8C10.2091 8 12 6.20914 12 4ZM6 4C6 2.89543 6.89543 2 8 2C9.10457 2 10 2.89543 10 4C10 5.10457 9.10457 6 8 6C6.89543 6 6 5.10457 6 4ZM8 9C10.67 9 16 10.33 16 13V16H0V13C0 10.33 5.33 9 8 9ZM1.9 13C1.9 12.36 5.03 10.9 8 10.9C10.97 10.9 14.1 12.36 14.1 13V14.1H1.9V13Z" fill="black"/>
</svg>
