<svg width="48" height="48" viewBox="0 0 48 48" fill="none" xmlns="http://www.w3.org/2000/svg">
<rect width="48" height="48" rx="10" fill="#FACD5D" fill-opacity="0.1"/>
<path d="M18.0222 22.6556C19.6222 25.8 22.2 28.3778 25.3444 29.9778L27.7889 27.5333C28.1 27.2222 28.5333 27.1333 28.9222 27.2556C30.1667 27.6667 31.5 27.8889 32.8889 27.8889C33.5025 27.8889 34 28.3864 34 29V32.8889C34 33.5025 33.5025 34 32.8889 34C22.4568 34 14 25.5432 14 15.1111C14 14.8164 14.1171 14.5338 14.3254 14.3254C14.5338 14.1171 14.8164 14 15.1111 14H19C19.6136 14 20.1111 14.4975 20.1111 15.1111C20.1111 16.5 20.3333 17.8333 20.7444 19.0778C20.8667 19.4667 20.7778 19.9 20.4667 20.2111L18.0222 22.6556Z" fill="#FACD5D"/>
</svg>
