<svg width="48" height="48" viewBox="0 0 48 48" fill="none" xmlns="http://www.w3.org/2000/svg">
<rect width="48" height="48" rx="10" fill="#503E9D" fill-opacity="0.1"/>
<path fill-rule="evenodd" clip-rule="evenodd" d="M29 19C29 16.2386 26.7614 14 24 14C21.2386 14 19 16.2386 19 19C19 21.7614 21.2386 24 24 24C26.7614 24 29 21.7614 29 19ZM21.5 19C21.5 17.6193 22.6193 16.5 24 16.5C25.3807 16.5 26.5 17.6193 26.5 19C26.5 20.3807 25.3807 21.5 24 21.5C22.6193 21.5 21.5 20.3807 21.5 19ZM24 25.25C27.3375 25.25 34 26.9125 34 30.25V34H14V30.25C14 26.9125 20.6625 25.25 24 25.25ZM16.375 30.25C16.375 29.45 20.2875 27.625 24 27.625C27.7125 27.625 31.625 29.45 31.625 30.25V31.625H16.375V30.25Z" fill="#503E9D"/>
</svg>
