<svg width="104" height="64" viewBox="0 0 104 64" fill="none" xmlns="http://www.w3.org/2000/svg">
<path fill-rule="evenodd" clip-rule="evenodd" d="M0 12C0 5.37258 5.37258 0 12 0H92C98.6274 0 104 5.37258 104 12V52C104 58.6274 98.6274 64 92 64H12C5.37259 64 0 58.6274 0 52V12Z" fill="#503E9D" fill-opacity="0.1"/>
<path fill-rule="evenodd" clip-rule="evenodd" d="M39.2 16H64.8C66.5673 16 68 17.4327 68 19.2V38.4C68 40.1673 66.5673 41.6 64.8 41.6H42.4L36 48V19.2C36 17.4327 37.4327 16 39.2 16ZM42.4 38.4H64.8V19.2H39.2V41.6L42.4 38.4Z" fill="#503E9D"/>
</svg>
