<svg width="104" height="64" viewBox="0 0 104 64" fill="none" xmlns="http://www.w3.org/2000/svg">
<rect width="104" height="64" rx="12" fill="#F7F7F7"/>
<path fill-rule="evenodd" clip-rule="evenodd" d="M32 20C32 17.7909 33.7909 16 36 16H68C70.2 16 72 17.78 72 20V28C69.8 28 68 29.78 68 32C68 34.2091 69.7909 36 72 36V44C72 46.2091 70.2091 48 68 48H36C33.7909 48 32 46.2091 32 44V36C34.2091 36 36 34.2091 36 32C36 29.8 34.22 28 32 28V20ZM62 25L59 22L42 39L45 42L62 25ZM45.62 22.08C47.58 22.08 49.16 23.66 49.16 25.62C49.16 27.5751 47.5751 29.16 45.62 29.16C43.66 29.16 42.08 27.58 42.08 25.62C42.08 23.6649 43.6649 22.08 45.62 22.08ZM61.92 38.38C61.92 36.42 60.34 34.84 58.38 34.84C56.4249 34.84 54.84 36.4249 54.84 38.38C54.84 40.34 56.42 41.92 58.38 41.92C60.3351 41.92 61.92 40.3351 61.92 38.38Z" fill="black"/>
</svg>
